IMDB LINK http://www.imdb.com/title/tt1074638/
General
Complete name : F:Skyfall 2012 1080p 5.1 X264 the.HHSkyfall 2012 1080p Dual Audio [Hindi 5.1 English 5.1] X264 the.HH.mp4
Format : MPEG-4
Format profile : Base Media
Codec ID : isom
File size : 3.13 GiB
Duration : 2h 23mn
Overall bit rate mode : Variable
Overall bit rate : 3 126 Kbps
Encoded date : UTC 2013-02-10 14:44:10
Tagged date : UTC 2013-02-10 14:44:10

Video
ID : 1
Format : AVC
Format/Info : Advanced Video Codec
Format profile : High@L4.0
Format settings, CABAC : Yes
Format settings, ReFrames : 4 frames
Codec ID : avc1
Codec ID/Info : Advanced Video Coding
Duration : 2h 23mn
Bit rate : 2 630 Kbps
Maximum bit rate : 29.4 Mbps
Width : 1 920 pixels
Height : 800 pixels
Display aspect ratio : 2.40:1
Frame rate mode : Constant
Frame rate : 23.976 fps
Color space : YUV
Chroma subsampling : 4:2:0
Bit depth : 8 bits
Scan type : Progressive
Bits/(Pixel*Frame) : 0.071
Stream size : 2.63 GiB (84%)
Title : Skyfall


Audio #1
ID : 2
Format : AAC
Format/Info : Advanced Audio Codec
Format profile : HE-AAC / LC
Codec ID : 40
Duration : 2h 23mn
Bit rate mode : Variable
Bit rate : 124 Kbps
Maximum bit rate : 180 Kbps
Channel(s) : 6 channels
Channel positions : Front: L C R, Side: L R, LFE
Sampling rate : 48.0 KHz / 24.0 KHz
Compression mode : Lossy
Stream size : 127 MiB (4%)
Title : Skyfall Hindi
Language : Hindi


Audio #2
ID : 3
Format : AAC
Format/Info : Advanced Audio Codec
Format profile : LC
Codec ID : 40
Duration : 2h 23mn
Bit rate mode : Variable
Bit rate : 368 Kbps
Maximum bit rate : 453 Kbps
Channel(s) : 6 channels
Channel positions : Front: L C R, Side: L R, LFE
Sampling rate : 48.0 KHz
Compression mode : Lossy
Stream size : 376 MiB (12%)
Title : Skyfall English
Language : English

SCREENS
 
http://img593.imageshack.us/img593/5526/vlcsnap2013020814h36m53.png 
http://img801.imageshack.us/img801/4409/vlcsnap2013020814h37m26.png 
http://img547.imageshack.us/img547/3176/vlcsnap2013020814h38m00.png